<svg id="Capa_1" enable-background="new 0 0 512 512" height="512" viewBox="0 0 512 512" width="512" xmlns="http://www.w3.org/2000/svg"><g><path d="m497 129.264h-482c-8.284 0-15 6.716-15 15v322.643c0 8.284 6.716 15 15 15h482c8.284 0 15-6.716 15-15v-322.643c0-8.285-6.716-15-15-15z" fill="#f5fafc"/><path d="m497 129.264h-237.188v352.643h237.188c8.284 0 15-6.716 15-15v-322.643c0-8.285-6.716-15-15-15z" fill="#dbeeff"/><path d="m374.636 274.97c-37.587 0-68.167 30.58-68.167 68.167v53.167c0 8.284 6.716 15 15 15h106.334c8.284 0 15-6.716 15-15v-53.167c0-37.587-30.58-68.167-68.167-68.167z" fill="#f13800"/><circle cx="374.636" cy="262.543" fill="#ff9e28" r="62.678"/><g><g><path d="m245.065 249.284h-161.121c-8.144 0-14.747-6.716-14.747-15s6.603-15 14.747-15h161.12c8.144 0 14.747 6.716 14.747 15s-6.602 15-14.746 15z" fill="#5f55ae"/></g></g><g><path d="m245.065 351.258h-161.121c-8.144 0-14.747-6.716-14.747-15s6.603-15 14.747-15h161.12c8.144 0 14.747 6.716 14.747 15s-6.602 15-14.746 15z" fill="#5f55ae"/></g><g><g><path d="m245.065 411.304h-161.121c-8.144 0-14.747-6.716-14.747-15s6.603-15 14.747-15h161.12c8.144 0 14.747 6.716 14.747 15s-6.602 15-14.746 15z" fill="#5f55ae"/></g></g><path d="m306.571 30.094h-93.52c-8.284 0-15 6.716-15 15v119.93c0 8.284 6.716 15 15 15h93.52c8.284 0 15-6.716 15-15v-119.93c0-8.284-6.716-15-15-15z" fill="#efd838"/><path d="m306.571 30.094h-46.76v149.93h46.76c8.284 0 15-6.716 15-15v-119.93c0-8.284-6.716-15-15-15z" fill="#fcc216"/></g></svg>